<svg xmlns="http://www.w3.org/2000/svg" fill="none" viewBox="0 0 24 24" id="Google-Workspace--Streamline-Svg-Logos" height="24" width="24">
  <desc>
    Google Workspace Streamline Icon: https://streamlinehq.com
  </desc>
  <path fill="#5f6368" d="M18.72665 11.3294c0.1843 0 0.341175 0.07255 0.470575 0.21765 0.133325 0.1451 0.2 0.321575 0.2 0.529425 0 0.21175 -0.066675 0.3902 -0.2 0.5353 -0.1294 0.1451 -0.286275 0.217625 -0.470575 0.217625h-0.0059c-0.10195 0 -0.196075 -0.02155 -0.28235 -0.0647 -0.086275 -0.043125 -0.150975 -0.10195 -0.194125 -0.176475h-0.01175l0.01175 0.194125v0.623525h-0.2647v-2.035275h0.25295v0.2h0.01175c0.04315 -0.074525 0.10785 -0.13335 0.194125 -0.176475 0.086275 -0.04315 0.18235 -0.064725 0.28825 -0.064725Zm-1.5 -0.005875c0.125475 0 0.2392 0.031375 0.341175 0.094125 0.10195 0.06275 0.17255 0.141175 0.21175 0.2353l-0.2353 0.1c-0.02655 -0.05995 -0.072 -0.109525 -0.1294 -0.141175 -0.063375 -0.033325 -0.134325 -0.04955 -0.205875 -0.047075 -0.065975 -0.00285 -0.131375 0.0135 -0.18825 0.047075 -0.0549 0.035275 -0.08235 0.078425 -0.08235 0.1294 0 0.08235 0.076475 0.139225 0.229425 0.1706l0.21175 0.058825c0.28235 0.06665 0.423525 0.207825 0.423525 0.423525 0 0.12155 -0.052925 0.225475 -0.158825 0.31175 -0.105875 0.086275 -0.243125 0.12745 -0.41175 0.123525 -0.141175 0 -0.2647 -0.03725 -0.3706 -0.11175 -0.10425 -0.070225 -0.184375 -0.170875 -0.2294 -0.28825l0.2353 -0.1c0.035275 0.082375 0.0843 0.147075 0.14705 0.194125 0.0631 0.046275 0.1394 0.071025 0.21765 0.0706 0.086275 0 0.15685 -0.01765 0.21175 -0.05295 0.054925 -0.0353 0.084325 -0.078425 0.08825 -0.1294 0 -0.0902 -0.068625 -0.156875 -0.205875 -0.2l-0.247075 -0.058825c-0.2745 -0.0706 -0.41175 -0.203925 -0.41175 -0.4 0 -0.129425 0.052925 -0.23335 0.158825 -0.311775 0.105875 -0.078425 0.2392 -0.11765 0.4 -0.11765Zm-3.72355 0.005875c0.211775 0 0.384325 0.0706 0.51765 0.211775 0.13725 0.141175 0.2059 0.3196 0.2059 0.5353 0 0.2196 -0.06865 0.4 -0.2059 0.541175 -0.13725 0.141175 -0.3098 0.21175 -0.51765 0.21175 -0.207825 0 -0.38235 -0.070575 -0.523525 -0.21175 -0.13725 -0.141175 -0.205875 -0.321575 -0.205875 -0.541175 0 -0.2157 0.068625 -0.394125 0.205875 -0.5353 0.13725 -0.141175 0.311775 -0.211775 0.523525 -0.211775Zm9.558825 0c0.211775 0 0.378425 0.066675 0.5 0.2 0.121575 0.13335 0.184325 0.32355 0.18825 0.5706v0.0294h-1.111775c0.003925 0.137275 0.049025 0.249025 0.1353 0.3353 0.086275 0.086275 0.19215 0.12745 0.31765 0.123525 0.168625 0 0.30195 -0.0843 0.4 -0.252925l0.235275 0.11765c-0.061075 0.114775 -0.152675 0.21045 -0.2647 0.27645 -0.1098 0.066675 -0.23725 0.1 -0.38235 0.1 -0.20785 0 -0.378425 -0.070575 -0.51175 -0.21175 -0.13335 -0.141175 -0.2 -0.321575 -0.2 -0.541175 0 -0.211775 0.0647 -0.3902 0.1941 -0.5353 0.129425 -0.1451 0.296075 -0.215675 0.5 -0.211775Zm-1.405875 0c0.1451 0 0.270575 0.0353 0.376475 0.1059 0.105875 0.070575 0.186275 0.170575 0.241175 0.3l-0.241175 0.1c-0.074525 -0.176475 -0.205875 -0.2647 -0.394125 -0.2647 -0.121575 0 -0.22745 0.049 -0.31765 0.14705 -0.086275 0.098025 -0.1294 0.21765 -0.1294 0.358825s0.043125 0.26275 0.1294 0.3647c0.0902 0.09805 0.196075 0.14705 0.31765 0.14705 0.19215 0 0.32745 -0.088225 0.405875 -0.2647l0.241175 0.1c-0.0549 0.129425 -0.13725 0.229425 -0.24705 0.3 -0.1098 0.0706 -0.23725 0.105875 -0.38235 0.105875 -0.211775 0 -0.386275 -0.070575 -0.523525 -0.21175 -0.13725 -0.1451 -0.205875 -0.3255 -0.205875 -0.541175 0 -0.2157 0.068625 -0.394125 0.205875 -0.5353 0.13725 -0.141175 0.31175 -0.211775 0.523525 -0.211775Zm-1.5353 0c0.196075 0 0.350975 0.051 0.4647 0.15295 0.113725 0.101975 0.1706 0.2451 0.1706 0.429425v0.870575h-0.25295v-0.194125h-0.01175c-0.1098 0.1608 -0.256875 0.241175 -0.441175 0.241175 -0.15295 0 -0.28235 -0.045075 -0.38825 -0.135275 -0.105875 -0.0902 -0.158825 -0.2059 -0.158825 -0.347075 0 -0.1451 0.0549 -0.260775 0.164725 -0.34705 0.1098 -0.086275 0.258825 -0.1294 0.44705 -0.1294 0.15685 0 0.286275 0.02745 0.388225 0.08235v-0.058825c0 -0.094125 -0.03725 -0.17255 -0.11175 -0.2353 -0.068775 -0.060675 -0.1573 -0.0941 -0.2489 -0.09415l-0.00405 0.000025c-0.149025 0 -0.266675 0.06275 -0.35295 0.18825l-0.235275 -0.147075c0.1294 -0.1843 0.3196 -0.276475 0.570575 -0.276475Zm-9.605875 -0.605875 0.4353 1.61765h0.01175L11.409 11h0.24705l0.44705 1.341175h0.011775l0.411775 -1.61765h0.27645l-0.552925 2.058825h-0.2706l-0.441175 -1.358825h-0.01175l-0.447075 1.358825H10.809l-0.5706 -2.058825h0.276475Zm4.58235 0.605875c0.0745 0 0.139225 0.011775 0.194125 0.0353l-0.08235 0.258825c-0.031375 -0.01175 -0.08235 -0.01765 -0.15295 -0.01765 -0.10195 0 -0.1902 0.039225 -0.2647 0.11765 -0.074525 0.078425 -0.111775 0.17255 -0.111775 0.28235v0.776475h-0.2647v-1.41175h0.25295v0.235275h0.01175c0.02745 -0.078425 0.084325 -0.143125 0.1706 -0.1941 0.086275 -0.051 0.168625 -0.07845 0.24705 -0.082375Zm0.58235 -0.605875v1.2706l0.611775 -0.623525h0.3353v0.01175l-0.547075 0.54705 0.576475 0.8412v0.01175h-0.323525l-0.4353 -0.6647 -0.21765 0.21765v0.44705h-0.2647v-2.058825h0.2647Zm4.476475 1.358825c-0.105875 0 -0.196075 0.0255 -0.2706 0.076475 -0.0745 0.050975 -0.1098 0.115675 -0.105875 0.194125 0 0.070575 0.029425 0.12745 0.08825 0.170575 0.058825 0.04315 0.12745 0.066675 0.205875 0.0706 0.1098 0 0.20785 -0.041175 0.294125 -0.123525 0.086275 -0.082375 0.13135 -0.17845 0.135275 -0.28825 -0.08235 -0.066675 -0.198025 -0.1 -0.34705 -0.1Zm-1.476475 -0.51175c-0.1294 0 -0.23725 0.04705 -0.323525 0.141175 -0.08235 0.098025 -0.123525 0.2196 -0.123525 0.3647 0 0.152925 0.041175 0.276475 0.123525 0.370575 0.086275 0.094125 0.194125 0.141175 0.323525 0.141175 0.129425 0 0.23725 -0.04705 0.323525 -0.141175 0.086275 -0.0941 0.129425 -0.21765 0.129425 -0.370575 0 -0.1451 -0.04315 -0.266675 -0.129425 -0.3647 -0.086275 -0.09805 -0.1941 -0.1451 -0.323525 -0.141175Zm-5.176475 0c-0.1294 0 -0.2392 0.04705 -0.3294 0.141175 -0.0902 0.0941 -0.1353 0.215675 -0.1353 0.3647 0 0.152925 0.0451 0.276475 0.1353 0.370575 0.0902 0.094125 0.2 0.141175 0.3294 0.141175 0.129425 0 0.239225 -0.04705 0.329425 -0.141175 0.0902 -0.0941 0.133325 -0.21765 0.1294 -0.370575 0 -0.149025 -0.043125 -0.2706 -0.1294 -0.3647 -0.0902 -0.094125 -0.2 -0.141175 -0.329425 -0.141175Zm9.55295 0c-0.09805 0 -0.18235 0.0294 -0.25295 0.088225 -0.070575 0.058825 -0.1196 0.141175 -0.14705 0.24705h0.811775c-0.00785 -0.098025 -0.047075 -0.178425 -0.11765 -0.241175 -0.0706 -0.06275 -0.168625 -0.0941 -0.294125 -0.0941Z" stroke-width="0.25"></path>
  <path fill="#4285f4" d="M1.438235 11.88235v-0.323525h1.07059c0.012275 0.06595 0.018175 0.132925 0.01765 0.2 0 0.2353 -0.06471 0.5353 -0.276475 0.741175 -0.2058825 0.21765 -0.464705 0.3294 -0.8176475 0.3294C0.7911775 12.8294 0.25 12.305875 0.25 11.6647s0.5411775 -1.170575 1.1823525 -1.170575c0.358825 0 0.611765 0.141175 0.8058825 0.323525l-0.2294125 0.223525c-0.2443725 -0.233225 -0.60516 -0.2963 -0.9141625 -0.159825 -0.309005 0.136475 -0.50539 0.44565 -0.4976 0.78335 0 0.4706 0.3705875 0.847075 0.8352925 0.847075 0.3058825 0 0.4823525 -0.12355 0.5941175 -0.2353 0.088235 -0.08825 0.14706 -0.21765 0.17059 -0.394125h-0.758825Z" stroke-width="0.25"></path>
  <path fill="#ea4335" d="M4.1558 12.076475c0 0.4353 -0.341175 0.75295 -0.758825 0.75295 -0.41765 0 -0.752925 -0.31765 -0.752925 -0.75295s0.341175 -0.75295 0.752925 -0.75295c0.411775 0 0.758825 0.31765 0.758825 0.75295Zm-0.335275 0c0 -0.2706 -0.194125 -0.45295 -0.42355 -0.45295 -0.2294 0 -0.423525 0.18235 -0.423525 0.45295 0 0.270575 0.2 0.458825 0.423525 0.458825 0.22355 0 0.42355 -0.18825 0.42355 -0.458825Z" stroke-width="0.25"></path>
  <path fill="#fbbc04" d="M5.803025 12.076475c0 0.4353 -0.341175 0.75295 -0.758825 0.75295 -0.41765 0 -0.75295 -0.31765 -0.75295 -0.75295s0.341175 -0.75295 0.75295 -0.75295 0.758825 0.31765 0.758825 0.75295Zm-0.3353 0c0 -0.2706 -0.1941 -0.45295 -0.423525 -0.45295 -0.2294 0 -0.423525 0.18235 -0.423525 0.45295 0 0.270575 0.2 0.458825 0.423525 0.458825 0.223525 0 0.423525 -0.18825 0.423525 -0.458825Z" stroke-width="0.25"></path>
  <path fill="#4285f4" d="M7.379275 11.3706v1.352925c0 0.55295 -0.3294 0.78235 -0.717625 0.78235 -0.364725 0 -0.582375 -0.24705 -0.664725 -0.44705l0.28825 -0.11765c0.052925 0.123525 0.176475 0.2706 0.376475 0.2706 0.252925 0 0.405875 -0.158825 0.405875 -0.441175v-0.111775h-0.011775c-0.101325 0.1135 -0.247925 0.176025 -0.4 0.1706 -0.370575 0 -0.71765 -0.329425 -0.71765 -0.747075 0 -0.423525 0.347075 -0.758825 0.71765 -0.758825 0.18235 0 0.323525 0.08235 0.4 0.1706h0.011775v-0.123525h0.31175Zm-0.288225 0.71175c0 -0.2647 -0.176475 -0.458825 -0.405875 -0.458825 -0.223525 0 -0.41765 0.194125 -0.41765 0.458825 0 0.258825 0.194125 0.45295 0.41765 0.45295 0.2294 0 0.405875 -0.194125 0.405875 -0.45295Z" stroke-width="0.25"></path>
  <path fill="#34a853" d="M7.608875 10.58235h0.329425v2.205875h-0.329425v-2.205875Z" stroke-width="0.25"></path>
  <path fill="#ea4335" d="M9.2147 12.323525 9.473525 12.5c-0.08235 0.11765 -0.28235 0.329425 -0.629425 0.329425 -0.4294 0 -0.74705 -0.329425 -0.74705 -0.75295 0 -0.44705 0.323525 -0.75295 0.71175 -0.75295 0.38825 0 0.582375 0.311775 0.641175 0.48235l0.0353 0.082375 -1.005875 0.417625c0.076475 0.15295 0.194125 0.229425 0.3647 0.229425 0.1706 0 0.28235 -0.08235 0.3706 -0.211775Zm-0.78825 -0.270575 0.6706 -0.276475c-0.0353 -0.094125 -0.147075 -0.158825 -0.276475 -0.158825 -0.1706 0 -0.405875 0.14705 -0.394125 0.4353Z" stroke-width="0.25"></path>
</svg>